# xmcd
#
# Track frame offsets:
#	150
#	12790
#	25205
#	37282
#	51234
#	61286
#	72688
#	93315
#	106030
#	114068
#	126606
#	140527
#
# Disc length: 2061 seconds
#
# Revision: 1
# Processed by: cddbd v1.5.1PL2 Copyright (c) Steve Scherf et al.
# Submitted via: EasyCDDAExtractor 8.2.3.1
#
DISCID=a9080b0c
DTITLE=Jacó e Jacózinho - 70
DYEAR=1970
DGENRE=Sertanejo
TTITLE0=Uai
TTITLE1=Nariz rebitadinho
TTITLE2=Somente Deus
TTITLE3=O ladrão e o japonês
TTITLE4=Mascate fracassado
TTITLE5=Por favor
TTITLE6=Dever de um médico
TTITLE7=Sonhos perdidos
TTITLE8=Começo do fim
TTITLE9=Cidade de Assis
TTITLE10=Amargo desgosto
TTITLE11=Quando a gente começa a gostar
EXTD=
EXTT0=
EXTT1=
EXTT2=
EXTT3=
EXTT4=
EXTT5=
EXTT6=
EXTT7=
EXTT8=
EXTT9=
EXTT10=
EXTT11=
PLAYORDER=
